<svg xmlns="http://www.w3.org/2000/svg" version="1.1" xmlns:xlink="http://www.w3.org/1999/xlink" xmlns:svgjs="http://svgjs.dev/svgjs" width="1500" height="234" viewBox="0 0 1500 234"><g transform="matrix(1,0,0,1,-0.9090909090909918,0.036214599765642674)"><svg viewBox="0 0 396 62" data-background-color="#ffffff" preserveAspectRatio="xMidYMid meet" height="234" width="1500" xmlns="http://www.w3.org/2000/svg" xmlns:xlink="http://www.w3.org/1999/xlink"><g id="tight-bounds" transform="matrix(1,0,0,1,0.2400000000000091,-0.009595321305425841)"><svg viewBox="0 0 395.52 62.01919064261085" height="62.01919064261085" width="395.52"><g><svg viewBox="0 0 395.52 62.01919064261085" height="62.01919064261085" width="395.52"><g><svg viewBox="0 0 484.4623374569293 75.96572124268349" height="62.01919064261085" width="395.52"><g transform="matrix(1,0,0,1,0,10.498880432237733)"><svg viewBox="0 0 395.5199999999999 54.96796037820802" height="54.96796037820802" width="395.5199999999999"><g id="textblocktransform"><svg viewBox="0 0 395.5199999999999 54.96796037820802" height="54.96796037820802" width="395.5199999999999" id="textblock"><g><svg viewBox="0 0 395.5199999999999 54.96796037820802" height="54.96796037820802" width="395.5199999999999"><g transform="matrix(1,0,0,1,0,0)"><svg width="395.5199999999999" viewBox="1.4999999999999998 -36.3 333.12 46.3" height="54.96796037820802" data-palette-color="#a437db"><path d="M5.05 0.25L5.05 0.25Q3.65 0.25 2.58-0.93 1.5-2.1 1.5-5.3L1.5-5.3Q1.5-5.85 1.53-6.28 1.55-6.7 1.55-6.9L1.55-6.9Q1.75-8.9 2.13-11.88 2.5-14.85 3-18.13 3.5-21.4 4.03-24.45 4.55-27.5 5-29.78 5.45-32.05 5.75-32.9L5.75-32.9Q6.3-34.4 7.73-35.27 9.15-36.15 10.65-36.15L10.65-36.15Q11.95-36.15 13.03-35.4 14.1-34.65 14.5-32.85L14.5-32.85Q14.2-31.85 13.55-29.33 12.9-26.8 12.15-23.15 11.4-19.5 10.73-15.1 10.05-10.7 9.65-5.9L9.65-5.9Q9.6-5.05 9.5-3.93 9.4-2.8 9.35-1.65L9.35-1.65Q8.75-1 7.55-0.38 6.35 0.25 5.05 0.25ZM22.65 0.2L22.65 0.2Q20.85 0.2 19.42-1.28 18-2.75 18-5.35L18-5.35Q18-6.65 18.35-8.33 18.7-10 19.12-11.75 19.55-13.5 19.9-15.05 20.25-16.6 20.25-17.65L20.25-17.65Q20.25-18.5 19.85-19.03 19.45-19.55 18.8-19.55L18.8-19.55Q17.95-19.55 16.95-18.55L16.95-18.55 16.65-18.75Q16.6-19.55 17-20.65 17.4-21.75 18.3-22.78 19.2-23.8 20.65-24.5 22.1-25.2 24.1-25.2L24.1-25.2Q26.35-25.2 27.47-23.63 28.6-22.05 28.6-19.85L28.6-19.85Q28.6-19.6 28.6-19.33 28.6-19.05 28.55-18.8L28.55-18.8Q29.5-20.35 30.77-21.8 32.05-23.25 33.67-24.23 35.3-25.2 37.2-25.2L37.2-25.2Q39.65-25.2 40.6-23.63 41.55-22.05 41.55-20.05L41.55-20.05Q41.55-19.65 41.52-19.28 41.5-18.9 41.45-18.55L41.45-18.55Q42.5-20.1 43.77-21.63 45.05-23.15 46.7-24.18 48.35-25.2 50.5-25.2L50.5-25.2Q53.15-25.2 54.12-23.65 55.1-22.1 55.1-20L55.1-20Q55.1-18.15 54.65-15.78 54.2-13.4 53.75-11.1 53.3-8.8 53.3-7.2L53.3-7.2Q53.3-6.25 53.57-5.65 53.85-5.05 54.5-5.05L54.5-5.05Q55.05-5.05 55.52-5.38 56-5.7 56.2-6.15L56.2-6.15 56.6-6Q56.6-4.15 55.55-2.75 54.5-1.35 52.9-0.58 51.3 0.2 49.7 0.2L49.7 0.2Q47.75 0.2 46.27-1.1 44.8-2.4 44.8-5.4L44.8-5.4Q44.8-7.25 45.27-9.4 45.75-11.55 46.22-13.58 46.7-15.6 46.7-16.9L46.7-16.9Q46.7-18.75 45.4-18.75L45.4-18.75Q44.45-18.75 43.52-17.98 42.6-17.2 41.87-15.93 41.15-14.65 40.7-13.25 40.25-11.85 40.25-10.55L40.25-10.55Q40.25-9.35 40.52-7.93 40.8-6.5 40.8-5.2L40.8-5.2Q40.8-2.6 39.35-1.2 37.9 0.2 35.95 0.2L35.95 0.2Q34.15 0.2 32.72-1 31.3-2.2 31.3-4.6L31.3-4.6Q31.3-5.7 31.6-7.28 31.9-8.85 32.27-10.58 32.65-12.3 32.95-13.9 33.25-15.5 33.25-16.7L33.25-16.7Q33.25-17.65 32.97-18.2 32.7-18.75 31.9-18.75L31.9-18.75Q30.75-18.75 29.7-17.6 28.65-16.45 27.9-14.83 27.15-13.2 26.9-11.7L26.9-11.7Q26.85-11.35 26.82-11.15 26.8-10.95 26.8-10.95L26.8-10.95Q26.8-9.4 27.15-8.13 27.5-6.85 27.5-5.5L27.5-5.5Q27.5-3.05 26.02-1.43 24.55 0.2 22.65 0.2ZM77.2 0.25L77.2 0.25Q75.45 0.25 74.15-0.9 72.84-2.05 72.84-4.65L72.84-4.65Q72.84-4.9 72.84-5.15 72.84-5.4 72.9-5.65L72.9-5.65Q71.4-2.65 69.52-1.23 67.65 0.2 65.75 0.2L65.75 0.2Q64 0.2 62.45-1.03 60.9-2.25 59.95-4.65 59-7.05 59-10.45L59-10.45Q59-13.95 59.97-16.7 60.95-19.45 62.55-21.35 64.15-23.25 66.05-24.23 67.95-25.2 69.75-25.2L69.75-25.2Q71.75-25.2 73.34-23.98 74.95-22.75 75.55-20.1L75.55-20.1Q75.7-20.95 75.77-21.65 75.84-22.35 75.84-22.6L75.84-22.6Q75.9-23.95 77.22-24.6 78.55-25.25 80.15-25.25L80.15-25.25Q81.55-25.25 82.8-24.7 84.05-24.15 84.5-22.85L84.5-22.85 84.59-22.55Q84-21.2 83.4-19.3 82.8-17.4 82.3-15.33 81.8-13.25 81.5-11.28 81.2-9.3 81.2-7.8L81.2-7.8Q81.2-6.15 81.55-5.53 81.9-4.9 82.4-4.9L82.4-4.9Q83.25-4.9 83.95-6.1L83.95-6.1 84.34-5.9Q84.34-4.2 83.25-2.8 82.15-1.4 80.5-0.58 78.84 0.25 77.2 0.25ZM69.05-6.1L69.05-6.1Q70.34-6.1 71.92-8.43 73.5-10.75 74.65-15.1L74.65-15.1Q74.75-15.55 74.84-15.98 74.95-16.4 75-16.8L75-16.8Q74.2-18.65 73.32-19.43 72.45-20.2 71.59-20.2L71.59-20.2Q70.34-20.2 69.27-18.88 68.2-17.55 67.52-15.55 66.84-13.55 66.84-11.55L66.84-11.55Q66.84-8.8 67.47-7.45 68.09-6.1 69.05-6.1ZM99.34 10L99.34 10Q96.89 10 95.29 8.55 93.69 7.1 93.69 4.45L93.69 4.45Q93.69 1.6 95.69-2.25L95.69-2.25Q95.34-2.15 94.99-2.1 94.64-2.05 94.29-2.05L94.29-2.05Q91.39-2.05 89.42-4.58 87.44-7.1 87.44-11.6L87.44-11.6Q87.44-15.65 89.02-18.75 90.59-21.85 93.04-23.6 95.49-25.35 98.14-25.35L98.14-25.35Q99.99-25.35 101.49-24.43 102.99-23.5 103.94-21.45L103.94-21.45Q103.99-21.95 103.99-22.35 103.99-22.75 103.99-23.1L103.99-23.1Q103.99-23.95 105.29-24.5 106.59-25.05 108.19-25.05L108.19-25.05Q109.64-25.05 110.89-24.5 112.14-23.95 112.54-22.65L112.54-22.65 112.64-22.35Q112.19-21.95 111.87-19.75 111.54-17.55 111.09-13.65L111.09-13.65Q110.79-11.2 110.34-8.08 109.89-4.95 109.12-1.78 108.34 1.4 107.09 4.08 105.84 6.75 103.94 8.38 102.04 10 99.34 10ZM97.69-7.8L97.69-7.8Q99.14-7.8 100.92-10.18 102.69-12.55 103.74-17L103.74-17Q102.84-18.95 101.92-19.78 100.99-20.6 100.04-20.6L100.04-20.6Q98.79-20.6 97.69-19.35 96.59-18.1 95.92-16.18 95.24-14.25 95.24-12.2L95.24-12.2Q95.24-10.1 95.94-8.95 96.64-7.8 97.69-7.8ZM97.09 4.25L97.09 4.25Q98.79 4.25 100.57 0.93 102.34-2.4 103.04-8.45L103.04-8.45Q99.24-3.3 97.77-0.53 96.29 2.25 96.29 3.4L96.29 3.4Q96.29 4.25 97.09 4.25ZM125.79 0.35L125.79 0.35Q122.14 0.35 119.74-1.13 117.34-2.6 116.14-5.03 114.94-7.45 114.94-10.25L114.94-10.25Q114.94-12.9 115.97-15.58 116.99-18.25 118.97-20.45 120.94-22.65 123.77-24 126.59-25.35 130.14-25.35L130.14-25.35Q134.54-25.35 136.57-23.38 138.59-21.4 138.59-18.6L138.59-18.6Q138.59-16.2 137.32-14.18 136.04-12.15 133.94-10.93 131.84-9.7 129.34-9.7L129.34-9.7Q128.04-9.7 126.69-10.1 125.34-10.5 124.04-11.35L124.04-11.35Q124.29-8.25 125.84-6.85 127.39-5.45 129.54-5.45L129.54-5.45Q131.04-5.45 132.54-6.03 134.04-6.6 135.32-7.53 136.59-8.45 137.29-9.5L137.29-9.5 137.64-9.25Q137.64-6.65 136.57-4.83 135.49-3 133.74-1.85 131.99-0.7 129.92-0.18 127.84 0.35 125.79 0.35ZM126.94-13.15L126.94-13.15Q128.54-13.15 129.54-14.08 130.54-15 131.04-16.25 131.54-17.5 131.54-18.45L131.54-18.45Q131.54-19.6 130.89-20.38 130.24-21.15 129.09-21.15L129.09-21.15Q128.19-21.15 127.12-20.5 126.04-19.85 125.19-18.28 124.34-16.7 124.09-13.9L124.09-13.9Q125.69-13.15 126.94-13.15ZM144.24 0.2L144.24 0.2Q142.69 0.2 141.49-0.55 140.29-1.3 140.29-3.05L140.29-3.05Q140.29-5.8 141.46-8.65 142.64-11.5 144.36-14.28 146.09-17.05 147.81-19.7 149.54-22.35 150.71-24.75 151.89-27.15 151.89-29.2L151.89-29.2Q151.89-30.85 151.09-30.85L151.09-30.85Q150.54-30.85 149.84-29.98 149.14-29.1 148.84-27.4L148.84-27.4 148.29-27.5Q148.29-30.35 149.64-32.33 150.99-34.3 153.09-35.3 155.19-36.3 157.39-36.3L157.39-36.3Q159.94-36.3 162.16-34.85 164.39-33.4 165.24-30.25L165.24-30.25Q165.59-29 165.76-27.45 165.94-25.9 165.99-24.78 166.04-23.65 166.04-23.65L166.04-23.65Q166.14-19.6 166.21-16.8 166.29-14 166.49-12.1 166.69-10.2 167.04-8.9L167.04-8.9Q167.39-7.65 167.96-6.88 168.54-6.1 169.44-6.1L169.44-6.1Q170.29-6.1 170.91-6.6 171.54-7.1 171.74-7.55L171.74-7.55 172.09-7.3Q172.09-5 171.19-3.3 170.29-1.6 168.84-0.7 167.39 0.2 165.79 0.2L165.79 0.2Q164.24 0.2 162.76-0.73 161.29-1.65 160.19-3.6 159.09-5.55 158.74-8.65L158.74-8.65Q157.19-8.75 155.71-8.83 154.24-8.9 153.04-8.9L153.04-8.9Q152.24-8.9 151.51-8.88 150.79-8.85 150.09-8.8L150.09-8.8Q149.64-7.25 149.36-5.68 149.09-4.1 149.09-2.6L149.09-2.6Q149.09-1.45 147.59-0.63 146.09 0.2 144.24 0.2ZM151.74-13.45L151.74-13.45Q152.99-13.8 154.39-13.93 155.79-14.05 157.39-14.05L157.39-14.05 158.49-14.05Q158.39-17.75 158.21-21.65 158.04-25.55 156.94-28.9L156.94-28.9Q156.54-25.3 154.94-21.35 153.34-17.4 151.74-13.45ZM180.29 0.2L180.29 0.2Q178.94 0.2 177.66-0.48 176.39-1.15 175.59-2.65 174.79-4.15 174.79-6.5L174.79-6.5Q174.79-8.6 175.36-11.43 175.94-14.25 176.66-17.3 177.39-20.35 177.94-23.25 178.49-26.15 178.44-28.4L178.44-28.4Q178.44-30.55 177.94-31.45L177.94-31.45 177.89-31.6Q178.44-33.2 179.84-34.1 181.24-35 182.79-35L182.79-35Q184.54-35 185.91-33.68 187.29-32.35 187.29-29.25L187.29-29.25Q187.29-27.6 186.89-25.33 186.49-23.05 185.94-20.48 185.39-17.9 184.81-15.4 184.24-12.9 183.84-10.8 183.44-8.7 183.44-7.35L183.44-7.35Q183.44-5.95 183.84-5.43 184.24-4.9 184.74-4.9L184.74-4.9Q185.29-4.9 185.79-5.33 186.29-5.75 186.44-6.1L186.44-6.1 186.84-6Q186.79-4.2 185.81-2.8 184.84-1.4 183.36-0.6 181.89 0.2 180.29 0.2ZM199.53 0.35L199.53 0.35Q196.23 0.35 193.96-1.15 191.68-2.65 190.53-5.08 189.38-7.5 189.38-10.3L189.38-10.3Q189.38-12.95 190.41-15.6 191.43-18.25 193.43-20.48 195.43-22.7 198.31-24.03 201.18-25.35 204.93-25.35L204.93-25.35Q208.63-25.35 210.43-23.88 212.23-22.4 212.23-20.65L212.23-20.65Q212.23-18.8 210.38-17.25 208.53-15.7 204.98-15.7L204.98-15.7Q205.18-16.45 205.31-17.23 205.43-18 205.43-18.7L205.43-18.7Q205.43-19.75 204.98-20.48 204.53-21.2 203.38-21.2L203.38-21.2Q202.33-21.2 201.16-20.25 199.98-19.3 199.16-17.45 198.33-15.6 198.33-12.9L198.33-12.9Q198.33-10.25 199.21-8.6 200.08-6.95 201.48-6.23 202.88-5.5 204.43-5.5L204.43-5.5Q206.48-5.5 208.38-6.58 210.28-7.65 211.13-9.55L211.13-9.55 211.63-9.35Q211.63-6.75 210.46-4.93 209.28-3.1 207.43-1.93 205.58-0.75 203.48-0.2 201.38 0.35 199.53 0.35ZM219.33 0.2L219.33 0.2Q217.18 0.2 215.88-1.25 214.58-2.7 214.58-5.2L214.58-5.2Q214.58-6.55 214.93-8.72 215.28-10.9 215.81-13.53 216.33-16.15 216.83-18.88 217.33-21.6 217.68-24.15 218.03-26.7 218.03-28.65L218.03-28.65Q218.03-31.1 217.38-32.2L217.38-32.2 217.38-32.5Q218.48-33.75 219.78-34.35 221.08-34.95 222.33-34.95L222.33-34.95Q224.23-34.95 225.58-33.6 226.93-32.25 226.93-29.55L226.93-29.55Q226.93-28.1 226.53-26 226.13-23.9 225.58-21.6 225.03-19.3 224.48-17.3L224.48-17.3Q225.43-19.15 227.01-20.98 228.58-22.8 230.61-24 232.63-25.2 234.83-25.2L234.83-25.2Q237.33-25.2 238.21-23.65 239.08-22.1 239.08-19.8L239.08-19.8Q239.08-17.7 238.63-15.33 238.18-12.95 237.73-10.78 237.28-8.6 237.28-7.15L237.28-7.15Q237.28-5.05 238.53-5.05L238.53-5.05Q239.08-5.05 239.51-5.38 239.93-5.7 240.13-6.1L240.13-6.1 240.48-5.85Q240.48-3.9 239.53-2.55 238.58-1.2 237.11-0.5 235.63 0.2 234.08 0.2L234.08 0.2Q232.03 0.2 230.38-1.18 228.73-2.55 228.73-5.65L228.73-5.65Q228.73-7.4 229.21-9.45 229.68-11.5 230.13-13.43 230.58-15.35 230.58-16.65L230.58-16.65Q230.58-18.35 229.38-18.35L229.38-18.35Q228.28-18.35 226.98-17.25 225.68-16.15 224.71-14.5 223.73-12.85 223.43-11.25L223.43-11.25Q223.33-10.85 223.33-10.3L223.33-10.3Q223.33-9.05 223.71-7.9 224.08-6.75 224.08-5.2L224.08-5.2Q224.08-2.9 222.88-1.35 221.68 0.2 219.33 0.2ZM253.88 0.35L253.88 0.35Q250.23 0.35 247.83-1.13 245.43-2.6 244.23-5.03 243.03-7.45 243.03-10.25L243.03-10.25Q243.03-12.9 244.05-15.58 245.08-18.25 247.05-20.45 249.03-22.65 251.85-24 254.68-25.35 258.23-25.35L258.23-25.35Q262.63-25.35 264.65-23.38 266.68-21.4 266.68-18.6L266.68-18.6Q266.68-16.2 265.4-14.18 264.13-12.15 262.03-10.93 259.93-9.7 257.43-9.7L257.43-9.7Q256.13-9.7 254.78-10.1 253.43-10.5 252.13-11.35L252.13-11.35Q252.38-8.25 253.93-6.85 255.48-5.45 257.63-5.45L257.63-5.45Q259.13-5.45 260.63-6.03 262.13-6.6 263.4-7.53 264.68-8.45 265.38-9.5L265.38-9.5 265.73-9.25Q265.73-6.65 264.65-4.83 263.58-3 261.83-1.85 260.08-0.7 258-0.18 255.93 0.35 253.88 0.35ZM255.03-13.15L255.03-13.15Q256.63-13.15 257.63-14.08 258.63-15 259.13-16.25 259.63-17.5 259.63-18.45L259.63-18.45Q259.63-19.6 258.98-20.38 258.33-21.15 257.18-21.15L257.18-21.15Q256.28-21.15 255.2-20.5 254.13-19.85 253.28-18.28 252.43-16.7 252.18-13.9L252.18-13.9Q253.78-13.15 255.03-13.15ZM274.58 0.2L274.58 0.2Q272.78 0.2 271.35-1.28 269.93-2.75 269.93-5.35L269.93-5.35Q269.93-6.65 270.28-8.33 270.63-10 271.05-11.75 271.48-13.5 271.83-15.05 272.18-16.6 272.18-17.65L272.18-17.65Q272.18-18.5 271.78-19.03 271.38-19.55 270.73-19.55L270.73-19.55Q269.88-19.55 268.88-18.55L268.88-18.55 268.58-18.75Q268.53-19.55 268.93-20.65 269.33-21.75 270.23-22.78 271.13-23.8 272.58-24.5 274.03-25.2 276.03-25.2L276.03-25.2Q278.28-25.2 279.4-23.63 280.53-22.05 280.53-19.85L280.53-19.85Q280.53-19.6 280.53-19.33 280.53-19.05 280.48-18.8L280.48-18.8Q281.43-20.35 282.7-21.8 283.98-23.25 285.6-24.23 287.23-25.2 289.13-25.2L289.13-25.2Q291.58-25.2 292.53-23.63 293.48-22.05 293.48-20.05L293.48-20.05Q293.48-19.65 293.45-19.28 293.43-18.9 293.38-18.55L293.38-18.55Q294.43-20.1 295.7-21.63 296.98-23.15 298.63-24.18 300.28-25.2 302.43-25.2L302.43-25.2Q305.08-25.2 306.05-23.65 307.03-22.1 307.03-20L307.03-20Q307.03-18.15 306.58-15.78 306.13-13.4 305.68-11.1 305.23-8.8 305.23-7.2L305.23-7.2Q305.23-6.25 305.5-5.65 305.78-5.05 306.43-5.05L306.43-5.05Q306.98-5.05 307.45-5.38 307.93-5.7 308.13-6.15L308.13-6.15 308.53-6Q308.53-4.15 307.48-2.75 306.43-1.35 304.83-0.58 303.23 0.2 301.63 0.2L301.63 0.2Q299.68 0.2 298.2-1.1 296.73-2.4 296.73-5.4L296.73-5.4Q296.73-7.25 297.2-9.4 297.68-11.55 298.15-13.58 298.63-15.6 298.63-16.9L298.63-16.9Q298.63-18.75 297.33-18.75L297.33-18.75Q296.38-18.75 295.45-17.98 294.53-17.2 293.8-15.93 293.08-14.65 292.63-13.25 292.18-11.85 292.18-10.55L292.18-10.55Q292.18-9.35 292.45-7.93 292.73-6.5 292.73-5.2L292.73-5.2Q292.73-2.6 291.28-1.2 289.83 0.2 287.88 0.2L287.88 0.2Q286.08 0.2 284.65-1 283.23-2.2 283.23-4.6L283.23-4.6Q283.23-5.7 283.53-7.28 283.83-8.85 284.2-10.58 284.58-12.3 284.88-13.9 285.18-15.5 285.18-16.7L285.18-16.7Q285.18-17.65 284.9-18.2 284.63-18.75 283.83-18.75L283.83-18.75Q282.68-18.75 281.63-17.6 280.58-16.45 279.83-14.83 279.08-13.2 278.83-11.7L278.83-11.7Q278.78-11.35 278.75-11.15 278.73-10.95 278.73-10.95L278.73-10.95Q278.73-9.4 279.08-8.13 279.43-6.85 279.43-5.5L279.43-5.5Q279.43-3.05 277.95-1.43 276.48 0.2 274.58 0.2ZM321.27 10L321.27 10Q318.77 10 317.25 8.47 315.72 6.95 315.72 4.35L315.72 4.35Q315.72 3 316.2 1.38 316.67-0.25 317.77-2.05L317.77-2.05Q315.32-2.2 313.75-3.7 312.17-5.2 312.17-8.25L312.17-8.25Q312.17-10.05 312.65-12.13 313.12-14.2 313.57-16.03 314.02-17.85 314.02-18.85L314.02-18.85Q314.02-19.6 313.72-19.93 313.42-20.25 313.02-20.25L313.02-20.25Q312.62-20.25 312.15-19.93 311.67-19.6 311.42-18.95L311.42-18.95 310.57-19.85Q310.87-21.4 311.87-22.6 312.87-23.8 314.32-24.5 315.77-25.2 317.32-25.2L317.32-25.2Q319.07-25.2 320.37-24.08 321.67-22.95 321.67-20L321.67-20Q321.67-18.15 321.22-16.03 320.77-13.9 320.32-12.03 319.87-10.15 319.87-9.05L319.87-9.05Q319.87-8.05 320.3-7.58 320.72-7.1 321.27-7.1L321.27-7.1Q321.97-7.1 322.87-7.88 323.77-8.65 324.57-10.45 325.37-12.25 325.62-15.3L325.62-15.3Q325.72-16.25 325.77-17.73 325.82-19.2 325.87-20.48 325.92-21.75 325.92-22.05L325.92-22.05Q325.92-23.85 327.25-24.58 328.57-25.3 330.17-25.3L330.17-25.3Q331.57-25.3 332.82-24.75 334.07-24.2 334.52-22.9L334.52-22.9 334.62-22.6Q334.17-22.2 333.85-19.9 333.52-17.6 333.07-13.75L333.07-13.75Q332.77-11.25 332.32-8.1 331.87-4.95 331.1-1.78 330.32 1.4 329.05 4.08 327.77 6.75 325.87 8.38 323.97 10 321.27 10ZM320.07 4.25L320.07 4.25Q321.62 4.25 322.85 1.43 324.07-1.4 324.77-6.6L324.77-6.6Q321.57-2.5 320.37-0.15 319.17 2.2 319.17 3.25L319.17 3.25Q319.17 4.25 320.07 4.25Z" opacity="1" transform="matrix(1,0,0,1,0,0)" fill="#a437db" class="wordmark-text-0" data-fill-palette-color="primary" id="text-0"></path></svg></g></svg></g></svg></g></svg></g><g transform="matrix(1,0,0,1,408.49661621424576,0)"><svg viewBox="0 0 75.96572124268349 75.96572124268349" height="75.96572124268349" width="75.96572124268349"><g><svg xmlns="http://www.w3.org/2000/svg" xmlns:xlink="http://www.w3.org/1999/xlink" version="1.1" x="0" y="0" viewBox="5 5 90 90" enable-background="new 0 0 100 100" xml:space="preserve" height="75.96572124268349" width="75.96572124268349" class="icon-icon-0" data-fill-palette-color="accent" id="icon-0"><path d="M95 11.521C95 7.92 92.08 5 88.479 5H11.521C7.92 5 5 7.92 5 11.521v76.957C5 92.08 7.92 95 11.521 95h76.957C92.08 95 95 92.08 95 88.479V11.521zM77.409 73h-52.5c-1.436 0-1.934-1.28-1.107-2.454L38.976 48.83c0.826-1.172 2.33-1.381 3.342-0.363l3.066 3.043c1.012 1.018 2.587 0.926 3.5-0.182l7.362-8.941c0.912-1.106 2.326-1.051 3.143 0.129l19.146 28.019C79.351 71.716 78.844 73 77.409 73zM73.74 46.6c-3.468 0-6.277-2.811-6.277-6.277 0-3.468 2.81-6.278 6.277-6.278 3.467 0 6.277 2.811 6.277 6.278C80.018 43.789 77.207 46.6 73.74 46.6z" fill="#a437db" data-fill-palette-color="accent"></path></svg></g></svg></g></svg></g></svg></g><defs></defs></svg><rect width="395.52" height="62.01919064261085" fill="none" stroke="none" visibility="hidden"></rect></g></svg></g></svg>